# Blender v3.0.1 OBJ File: ''
# www.blender.org
o rear_rail_Cube.009
v -1.192000 0.940500 0.097500
v -1.192000 0.932500 0.105500
v -1.200000 0.940500 0.105500
v -1.192000 0.934843 0.099843
v -1.196619 0.935881 0.100881
v -1.197657 0.934843 0.105500
v -1.197657 0.940500 0.099843
v -1.192000 0.932500 0.134500
v -1.192000 0.940500 0.142500
v -1.200000 0.940500 0.134500
v -1.192000 0.934843 0.140157
v -1.196619 0.935881 0.139119
v -1.197657 0.940500 0.140157
v -1.197657 0.934843 0.134500
v -1.192000 0.959500 0.097500
v -1.200000 0.959500 0.105500
v -1.192000 0.967500 0.105500
v -1.197657 0.959500 0.099843
v -1.196619 0.964119 0.100881
v -1.197657 0.965157 0.105500
v -1.192000 0.965157 0.099843
v -1.192000 0.959500 0.142500
v -1.192000 0.967500 0.134500
v -1.200000 0.959500 0.134500
v -1.192000 0.965157 0.140157
v -1.196619 0.964119 0.139119
v -1.197657 0.965157 0.134500
v -1.197657 0.959500 0.140157
v 1.192000 0.940500 0.097500
v 1.200000 0.940500 0.105500
v 1.192000 0.932500 0.105500
v 1.197657 0.940500 0.099843
v 1.196619 0.935881 0.100881
v 1.197657 0.934843 0.105500
v 1.192000 0.934843 0.099843
v 1.192000 0.940500 0.142500
v 1.192000 0.932500 0.134500
v 1.200000 0.940500 0.134500
v 1.192000 0.934843 0.140157
v 1.196619 0.935881 0.139119
v 1.197657 0.934843 0.134500
v 1.197657 0.940500 0.140157
v 1.192000 0.959500 0.097500
v 1.192000 0.967500 0.105500
v 1.200000 0.959500 0.105500
v 1.192000 0.965157 0.099843
v 1.196619 0.964119 0.100881
v 1.197657 0.965157 0.105500
v 1.197657 0.959500 0.099843
v 1.192000 0.959500 0.142500
v 1.200000 0.959500 0.134500
v 1.192000 0.967500 0.134500
v 1.197657 0.959500 0.140157
v 1.196619 0.964119 0.139119
v 1.197657 0.965157 0.134500
v 1.192000 0.965157 0.140157
vt 0.419444 0.750833
vt 0.580556 0.750833
vt 0.580556 0.999167
vt 0.419444 0.999167
vt 0.419444 0.557143
vt 0.580556 0.557143
vt 0.580556 0.692857
vt 0.419444 0.692857
vt 0.625833 0.557143
vt 0.874167 0.557143
vt 0.874167 0.692857
vt 0.625833 0.692857
vt 0.419444 0.057143
vt 0.580556 0.057143
vt 0.580556 0.192857
vt 0.419444 0.192857
vt 0.419444 0.250833
vt 0.580556 0.250833
vt 0.580556 0.499167
vt 0.419444 0.499167
vt 0.125833 0.692857
vt 0.125833 0.750000
vt 0.125352 0.750000
vt 0.125000 0.692857
vt 0.419444 1.000000
vt 0.393784 1.000000
vt 0.375000 0.999167
vt 0.375000 0.057143
vt 0.375000 0.024151
vt 0.419444 0.000000
vt 0.625000 0.999167
vt 0.625000 0.999648
vt 0.580555 1.000000
vt 0.875000 0.692857
vt 0.875000 0.725849
vt 0.874167 0.750000
vt 0.580556 0.000000
vt 0.606216 0.000000
vt 0.625000 0.057143
vt 0.125833 0.557143
vt 0.125000 0.557143
vt 0.125000 0.524151
vt 0.125833 0.500000
vt 0.419444 0.250000
vt 0.393784 0.250000
vt 0.375000 0.192857
vt 0.375000 0.250833
vt 0.375000 0.250352
vt 0.874167 0.500000
vt 0.874648 0.500000
vt 0.875000 0.557143
vt 0.580556 0.250000
vt 0.606216 0.250000
vt 0.625000 0.250833
vt 0.625000 0.192857
vt 0.625000 0.225849
vt 0.374167 0.692857
vt 0.375000 0.692857
vt 0.381261 0.742067
vt 0.374167 0.750000
vt 0.419444 0.750000
vt 0.375000 0.750833
vt 0.625833 0.750000
vt 0.618856 0.741950
vt 0.625000 0.692857
vt 0.580556 0.750000
vt 0.625000 0.750833
vt 0.374167 0.557143
vt 0.374167 0.500000
vt 0.381144 0.508050
vt 0.375000 0.557143
vt 0.419444 0.500000
vt 0.375000 0.499167
vt 0.625000 0.557143
vt 0.618739 0.507933
vt 0.625833 0.500000
vt 0.580556 0.500000
vt 0.625000 0.499167
vn 0.0000 -1.0000 0.0000
vn 1.0000 0.0000 0.0000
vn 0.0000 0.0000 1.0000
vn -1.0000 0.0000 0.0000
vn 0.0000 1.0000 0.0000
vn -0.3251 -0.3251 -0.8881
vn -0.3251 -0.8881 -0.3250
vn -0.8881 -0.3251 -0.3251
vn -0.3251 -0.8881 0.3250
vn -0.3251 -0.3251 0.8881
vn -0.8881 -0.3251 0.3251
vn -0.3251 0.3251 -0.8881
vn -0.8881 0.3251 -0.3251
vn -0.3251 0.8881 -0.3250
vn -0.3251 0.3251 0.8881
vn -0.3251 0.8881 0.3250
vn -0.8881 0.3251 0.3251
vn 0.3251 -0.3251 -0.8881
vn 0.8881 -0.3251 -0.3251
vn 0.3251 -0.8881 -0.3250
vn 0.3251 -0.3251 0.8881
vn 0.3251 -0.8881 0.3250
vn 0.8881 -0.3251 0.3251
vn 0.3251 0.3251 -0.8881
vn 0.3251 0.8881 -0.3250
vn 0.8881 0.3251 -0.3251
vn 0.3251 0.3251 0.8881
vn 0.8881 0.3251 0.3251
vn 0.3251 0.8881 0.3250
vn -0.3827 0.0000 -0.9239
vn -0.9239 0.0000 -0.3827
vn -0.3827 -0.9239 0.0000
vn -0.9239 -0.3827 0.0000
vn -0.3827 0.0000 0.9239
vn -0.9239 0.0000 0.3827
vn -0.3827 0.9239 0.0000
vn -0.9239 0.3827 0.0000
vn 0.0000 0.3827 -0.9239
vn 0.0000 0.9239 -0.3827
vn 0.0000 0.3827 0.9239
vn 0.0000 0.9239 0.3827
vn 0.9239 0.3827 0.0000
vn 0.3827 0.9239 0.0000
vn 0.3827 0.0000 -0.9239
vn 0.9239 0.0000 -0.3827
vn 0.3827 0.0000 0.9239
vn 0.9239 0.0000 0.3827
vn 0.3827 -0.9239 0.0000
vn 0.9239 -0.3827 0.0000
vn 0.0000 -0.3827 -0.9239
vn 0.0000 -0.9239 -0.3827
vn 0.0000 -0.3827 0.9239
vn 0.0000 -0.9239 0.3827
vn 0.0000 0.0000 -1.0000
s off
f 31/1/1 37/2/1 8/3/1 2/4/1
f 45/5/2 51/6/2 38/7/2 30/8/2
f 50/9/3 22/10/3 9/11/3 36/12/3
f 3/13/4 10/14/4 24/15/4 16/16/4
f 17/17/5 23/18/5 52/19/5 44/20/5
f 1/21/6 4/22/6 5/23/6 7/24/6
f 2/4/7 6/25/7 5/26/7 4/27/7
f 3/13/8 7/28/8 5/29/8 6/30/8
f 8/3/9 11/31/9 12/32/9 14/33/9
f 9/11/10 13/34/10 12/35/10 11/36/10
f 10/14/11 14/37/11 12/38/11 13/39/11
f 15/40/12 18/41/12 19/42/12 21/43/12
f 16/16/13 20/44/13 19/45/13 18/46/13
f 17/17/14 21/47/14 19/48/14 20/44/14
f 22/10/15 25/49/15 26/50/15 28/51/15
f 23/18/16 27/52/16 26/53/16 25/54/16
f 24/15/17 28/55/17 26/56/17 27/52/17
f 29/57/18 32/58/18 33/59/18 35/60/18
f 30/8/19 34/61/19 33/59/19 32/58/19
f 31/1/20 35/62/20 33/59/20 34/61/20
f 36/12/21 39/63/21 40/64/21 42/65/21
f 37/2/22 41/66/22 40/64/22 39/67/22
f 38/7/23 42/65/23 40/64/23 41/66/23
f 43/68/24 46/69/24 47/70/24 49/71/24
f 44/20/25 48/72/25 47/70/25 46/73/25
f 45/5/26 49/71/26 47/70/26 48/72/26
f 50/9/27 53/74/27 54/75/27 56/76/27
f 51/6/28 55/77/28 54/75/28 53/74/28
f 52/19/29 56/78/29 54/75/29 55/77/29
f 15/40/30 1/21/30 7/24/30 18/41/30
f 18/46/31 7/28/31 3/13/31 16/16/31
f 2/4/32 8/3/32 14/33/32 6/25/32
f 6/30/33 14/37/33 10/14/33 3/13/33
f 9/11/34 22/10/34 28/51/34 13/34/34
f 13/39/35 28/55/35 24/15/35 10/14/35
f 23/18/36 17/17/36 20/44/36 27/52/36
f 27/52/37 20/44/37 16/16/37 24/15/37
f 43/68/38 15/40/38 21/43/38 46/69/38
f 46/73/39 21/47/39 17/17/39 44/20/39
f 22/10/40 50/9/40 56/76/40 25/49/40
f 25/54/41 56/78/41 52/19/41 23/18/41
f 51/6/42 45/5/42 48/72/42 55/77/42
f 55/77/43 48/72/43 44/20/43 52/19/43
f 29/57/44 43/68/44 49/71/44 32/58/44
f 32/58/45 49/71/45 45/5/45 30/8/45
f 50/9/46 36/12/46 42/65/46 53/74/46
f 53/74/47 42/65/47 38/7/47 51/6/47
f 37/2/48 31/1/48 34/61/48 41/66/48
f 41/66/49 34/61/49 30/8/49 38/7/49
f 1/21/50 29/57/50 35/60/50 4/22/50
f 4/27/51 35/62/51 31/1/51 2/4/51
f 36/12/52 9/11/52 11/36/52 39/63/52
f 39/67/53 11/31/53 8/3/53 37/2/53
f 15/40/54 43/68/54 29/57/54 1/21/54
o side_rail_Cube.010
v -1.209500 -0.942000 0.097500
v -1.209500 -0.950000 0.105500
v -1.217500 -0.942000 0.105500
v -1.209500 -0.947657 0.099843
v -1.214119 -0.946619 0.100881
v -1.215157 -0.947657 0.105500
v -1.215157 -0.942000 0.099843
v -1.209500 -0.950000 0.134500
v -1.209500 -0.942000 0.142500
v -1.217500 -0.942000 0.134500
v -1.209500 -0.947657 0.140157
v -1.214119 -0.946619 0.139119
v -1.215157 -0.942000 0.140157
v -1.215157 -0.947657 0.134500
v -1.209500 0.942000 0.097500
v -1.217500 0.942000 0.105500
v -1.209500 0.950000 0.105500
v -1.215157 0.942000 0.099843
v -1.214119 0.946619 0.100881
v -1.215157 0.947657 0.105500
v -1.209500 0.947657 0.099843
v -1.209500 0.942000 0.142500
v -1.209500 0.950000 0.134500
v -1.217500 0.942000 0.134500
v -1.209500 0.947657 0.140157
v -1.214119 0.946619 0.139119
v -1.215157 0.947657 0.134500
v -1.215157 0.942000 0.140157
v -1.190500 -0.942000 0.097500
v -1.182500 -0.942000 0.105500
v -1.190500 -0.950000 0.105500
v -1.184843 -0.942000 0.099843
v -1.185881 -0.946619 0.100881
v -1.184843 -0.947657 0.105500
v -1.190500 -0.947657 0.099843
v -1.190500 -0.942000 0.142500
v -1.190500 -0.950000 0.134500
v -1.182500 -0.942000 0.134500
v -1.190500 -0.947657 0.140157
v -1.185881 -0.946619 0.139119
v -1.184843 -0.947657 0.134500
v -1.184843 -0.942000 0.140157
v -1.190500 0.942000 0.097500
v -1.190500 0.950000 0.105500
v -1.182500 0.942000 0.105500
v -1.190500 0.947657 0.099843
v -1.185881 0.946619 0.100881
v -1.184843 0.947657 0.105500
v -1.184843 0.942000 0.099843
v -1.190500 0.942000 0.142500
v -1.182500 0.942000 0.134500
v -1.190500 0.950000 0.134500
v -1.184843 0.942000 0.140157
v -1.185881 0.946619 0.139119
v -1.184843 0.947657 0.134500
v -1.190500 0.947657 0.140157
vt 0.419444 0.807143
vt 0.580556 0.807143
vt 0.580556 0.942857
vt 0.419444 0.942857
vt 0.419444 0.501053
vt 0.580556 0.501053
vt 0.580556 0.748947
vt 0.419444 0.748947
vt 0.682143 0.501053
vt 0.817857 0.501053
vt 0.817857 0.748947
vt 0.682143 0.748947
vt 0.419444 0.001053
vt 0.580556 0.001053
vt 0.580556 0.248947
vt 0.419444 0.248947
vt 0.419444 0.307143
vt 0.580556 0.307143
vt 0.580556 0.442857
vt 0.419444 0.442857
vt 0.182143 0.748947
vt 0.182143 0.750000
vt 0.149151 0.750000
vt 0.125000 0.748947
vt 0.419444 1.000000
vt 0.393784 1.000000
vt 0.375000 0.942857
vt 0.375000 0.001053
vt 0.375000 0.000445
vt 0.419444 0.000000
vt 0.625000 0.942857
vt 0.625000 0.975849
vt 0.580555 1.000000
vt 0.875000 0.748947
vt 0.875000 0.749555
vt 0.817857 0.750000
vt 0.580556 0.000000
vt 0.606216 0.000000
vt 0.625000 0.001053
vt 0.182143 0.501053
vt 0.125000 0.501053
vt 0.125000 0.500445
vt 0.182143 0.500000
vt 0.419444 0.250000
vt 0.393784 0.250000
vt 0.375000 0.248947
vt 0.375000 0.307143
vt 0.375000 0.274151
vt 0.817857 0.500000
vt 0.850849 0.500000
vt 0.875000 0.501053
vt 0.580556 0.250000
vt 0.606216 0.250000
vt 0.625000 0.307143
vt 0.625000 0.248947
vt 0.625000 0.249555
vt 0.317857 0.748947
vt 0.375000 0.748947
vt 0.381261 0.757902
vt 0.317857 0.750000
vt 0.419444 0.750000
vt 0.375000 0.807143
vt 0.682143 0.750000
vt 0.626789 0.749852
vt 0.625000 0.748947
vt 0.580556 0.750000
vt 0.625000 0.807143
vt 0.317857 0.501053
vt 0.317857 0.500000
vt 0.373211 0.500148
vt 0.375000 0.501053
vt 0.419444 0.500000
vt 0.375000 0.442857
vt 0.625000 0.501053
vt 0.618739 0.492098
vt 0.682143 0.500000
vt 0.580556 0.500000
vt 0.625000 0.442857
vn 0.0000 -1.0000 0.0000
vn 1.0000 0.0000 0.0000
vn 0.0000 0.0000 1.0000
vn -1.0000 0.0000 0.0000
vn 0.0000 1.0000 0.0000
vn -0.3251 -0.3251 -0.8881
vn -0.3251 -0.8881 -0.3251
vn -0.8881 -0.3251 -0.3251
vn -0.3251 -0.8881 0.3251
vn -0.3251 -0.3251 0.8881
vn -0.8881 -0.3251 0.3251
vn -0.3251 0.3251 -0.8881
vn -0.8881 0.3251 -0.3251
vn -0.3251 0.8881 -0.3251
vn -0.3251 0.3251 0.8881
vn -0.3251 0.8881 0.3251
vn -0.8881 0.3251 0.3251
vn 0.3251 -0.3250 -0.8881
vn 0.8881 -0.3251 -0.3251
vn 0.3251 -0.8881 -0.3251
vn 0.3251 -0.3251 0.8881
vn 0.3251 -0.8881 0.3251
vn 0.8881 -0.3251 0.3251
vn 0.3251 0.3251 -0.8881
vn 0.3251 0.8881 -0.3251
vn 0.8881 0.3251 -0.3251
vn 0.3251 0.3250 0.8881
vn 0.8881 0.3251 0.3251
vn 0.3251 0.8881 0.3251
vn -0.3827 0.0000 -0.9239
vn -0.9239 0.0000 -0.3827
vn -0.3827 -0.9239 0.0000
vn -0.9239 -0.3827 0.0000
vn -0.3827 0.0000 0.9239
vn -0.9239 0.0000 0.3827
vn -0.3827 0.9239 0.0000
vn -0.9239 0.3827 0.0000
vn 0.0000 0.3827 -0.9239
vn 0.0000 0.9239 -0.3827
vn 0.0000 0.3827 0.9239
vn 0.0000 0.9239 0.3827
vn 0.9239 0.3827 0.0000
vn 0.3827 0.9239 0.0000
vn 0.3827 0.0000 -0.9239
vn 0.9239 0.0000 -0.3827
vn 0.3827 0.0000 0.9239
vn 0.9239 0.0000 0.3827
vn 0.3827 -0.9239 0.0000
vn 0.9239 -0.3827 0.0000
vn 0.0000 -0.3827 -0.9239
vn 0.0000 -0.9239 -0.3827
vn 0.0000 -0.3827 0.9239
vn 0.0000 -0.9239 0.3827
vn 0.0000 0.0000 -1.0000
s off
f 87/79/55 93/80/55 64/81/55 58/82/55
f 101/83/56 107/84/56 94/85/56 86/86/56
f 106/87/57 78/88/57 65/89/57 92/90/57
f 59/91/58 66/92/58 80/93/58 72/94/58
f 73/95/59 79/96/59 108/97/59 100/98/59
f 57/99/60 60/100/60 61/101/60 63/102/60
f 58/82/61 62/103/61 61/104/61 60/105/61
f 59/91/62 63/106/62 61/107/62 62/108/62
f 64/81/63 67/109/63 68/110/63 70/111/63
f 65/89/64 69/112/64 68/113/64 67/114/64
f 66/92/65 70/115/65 68/116/65 69/117/65
f 71/118/66 74/119/66 75/120/66 77/121/66
f 72/94/67 76/122/67 75/123/67 74/124/67
f 73/95/68 77/125/68 75/126/68 76/122/68
f 78/88/69 81/127/69 82/128/69 84/129/69
f 79/96/70 83/130/70 82/131/70 81/132/70
f 80/93/71 84/133/71 82/134/71 83/130/71
f 85/135/72 88/136/72 89/137/72 91/138/72
f 86/86/73 90/139/73 89/137/73 88/136/73
f 87/79/74 91/140/74 89/137/74 90/139/74
f 92/90/75 95/141/75 96/142/75 98/143/75
f 93/80/76 97/144/76 96/142/76 95/145/76
f 94/85/77 98/143/77 96/142/77 97/144/77
f 99/146/78 102/147/78 103/148/78 105/149/78
f 100/98/79 104/150/79 103/148/79 102/151/79
f 101/83/80 105/149/80 103/148/80 104/150/80
f 106/87/81 109/152/81 110/153/81 112/154/81
f 107/84/82 111/155/82 110/153/82 109/152/82
f 108/97/83 112/156/83 110/153/83 111/155/83
f 71/118/84 57/99/84 63/102/84 74/119/84
f 74/124/85 63/106/85 59/91/85 72/94/85
f 58/82/86 64/81/86 70/111/86 62/103/86
f 62/108/87 70/115/87 66/92/87 59/91/87
f 65/89/88 78/88/88 84/129/88 69/112/88
f 69/117/89 84/133/89 80/93/89 66/92/89
f 79/96/90 73/95/90 76/122/90 83/130/90
f 83/130/91 76/122/91 72/94/91 80/93/91
f 99/146/92 71/118/92 77/121/92 102/147/92
f 102/151/93 77/125/93 73/95/93 100/98/93
f 78/88/94 106/87/94 112/154/94 81/127/94
f 81/132/95 112/156/95 108/97/95 79/96/95
f 107/84/96 101/83/96 104/150/96 111/155/96
f 111/155/97 104/150/97 100/98/97 108/97/97
f 85/135/98 99/146/98 105/149/98 88/136/98
f 88/136/99 105/149/99 101/83/99 86/86/99
f 106/87/100 92/90/100 98/143/100 109/152/100
f 109/152/101 98/143/101 94/85/101 107/84/101
f 93/80/102 87/79/102 90/139/102 97/144/102
f 97/144/103 90/139/103 86/86/103 94/85/103
f 57/99/104 85/135/104 91/138/104 60/100/104
f 60/105/105 91/140/105 87/79/105 58/82/105
f 92/90/106 65/89/106 67/114/106 95/141/106
f 95/145/107 67/109/107 64/81/107 93/80/107
f 71/118/108 99/146/108 85/135/108 57/99/108
o side_rail.001_Cube.011
v 1.190500 -0.942000 0.097500
v 1.190500 -0.950000 0.105500
v 1.182500 -0.942000 0.105500
v 1.190500 -0.947657 0.099843
v 1.185881 -0.946619 0.100881
v 1.184843 -0.947657 0.105500
v 1.184843 -0.942000 0.099843
v 1.190500 -0.950000 0.134500
v 1.190500 -0.942000 0.142500
v 1.182500 -0.942000 0.134500
v 1.190500 -0.947657 0.140157
v 1.185881 -0.946619 0.139119
v 1.184843 -0.942000 0.140157
v 1.184843 -0.947657 0.134500
v 1.190500 0.942000 0.097500
v 1.182500 0.942000 0.105500
v 1.190500 0.950000 0.105500
v 1.184843 0.942000 0.099843
v 1.185881 0.946619 0.100881
v 1.184843 0.947657 0.105500
v 1.190500 0.947657 0.099843
v 1.190500 0.942000 0.142500
v 1.190500 0.950000 0.134500
v 1.182500 0.942000 0.134500
v 1.190500 0.947657 0.140157
v 1.185881 0.946619 0.139119
v 1.184843 0.947657 0.134500
v 1.184843 0.942000 0.140157
v 1.209500 -0.942000 0.097500
v 1.217500 -0.942000 0.105500
v 1.209500 -0.950000 0.105500
v 1.215157 -0.942000 0.099843
v 1.214119 -0.946619 0.100881
v 1.215157 -0.947657 0.105500
v 1.209500 -0.947657 0.099843
v 1.209500 -0.942000 0.142500
v 1.209500 -0.950000 0.134500
v 1.217500 -0.942000 0.134500
v 1.209500 -0.947657 0.140157
v 1.214119 -0.946619 0.139119
v 1.215157 -0.947657 0.134500
v 1.215157 -0.942000 0.140157
v 1.209500 0.942000 0.097500
v 1.209500 0.950000 0.105500
v 1.217500 0.942000 0.105500
v 1.209500 0.947657 0.099843
v 1.214119 0.946619 0.100881
v 1.215157 0.947657 0.105500
v 1.215157 0.942000 0.099843
v 1.209500 0.942000 0.142500
v 1.217500 0.942000 0.134500
v 1.209500 0.950000 0.134500
v 1.215157 0.942000 0.140157
v 1.214119 0.946619 0.139119
v 1.215157 0.947657 0.134500
v 1.209500 0.947657 0.140157
vt 0.419444 0.807143
vt 0.580556 0.807143
vt 0.580556 0.942857
vt 0.419444 0.942857
vt 0.419444 0.501053
vt 0.580556 0.501053
vt 0.580556 0.748947
vt 0.419444 0.748947
vt 0.682143 0.501053
vt 0.817857 0.501053
vt 0.817857 0.748947
vt 0.682143 0.748947
vt 0.419444 0.001053
vt 0.580556 0.001053
vt 0.580556 0.248947
vt 0.419444 0.248947
vt 0.419444 0.307143
vt 0.580556 0.307143
vt 0.580556 0.442857
vt 0.419444 0.442857
vt 0.182143 0.748947
vt 0.182143 0.750000
vt 0.149151 0.750000
vt 0.125000 0.748947
vt 0.419444 1.000000
vt 0.393784 1.000000
vt 0.375000 0.942857
vt 0.375000 0.001053
vt 0.375000 0.000445
vt 0.419444 0.000000
vt 0.625000 0.942857
vt 0.625000 0.975849
vt 0.580555 1.000000
vt 0.875000 0.748947
vt 0.875000 0.749555
vt 0.817857 0.750000
vt 0.580556 0.000000
vt 0.606216 0.000000
vt 0.625000 0.001053
vt 0.182143 0.501053
vt 0.125000 0.501053
vt 0.125000 0.500445
vt 0.182143 0.500000
vt 0.419444 0.250000
vt 0.393784 0.250000
vt 0.375000 0.248947
vt 0.375000 0.307143
vt 0.375000 0.274151
vt 0.817857 0.500000
vt 0.850849 0.500000
vt 0.875000 0.501053
vt 0.580556 0.250000
vt 0.606216 0.250000
vt 0.625000 0.307143
vt 0.625000 0.248947
vt 0.625000 0.249555
vt 0.317857 0.748947
vt 0.375000 0.748947
vt 0.381261 0.757902
vt 0.317857 0.750000
vt 0.419444 0.750000
vt 0.375000 0.807143
vt 0.682143 0.750000
vt 0.626789 0.749852
vt 0.625000 0.748947
vt 0.580556 0.750000
vt 0.625000 0.807143
vt 0.317857 0.501053
vt 0.317857 0.500000
vt 0.373211 0.500148
vt 0.375000 0.501053
vt 0.419444 0.500000
vt 0.375000 0.442857
vt 0.625000 0.501053
vt 0.618739 0.492098
vt 0.682143 0.500000
vt 0.580556 0.500000
vt 0.625000 0.442857
vn 0.0000 -1.0000 0.0000
vn 1.0000 0.0000 0.0000
vn 0.0000 0.0000 1.0000
vn -1.0000 0.0000 0.0000
vn 0.0000 1.0000 0.0000
vn -0.3251 -0.3251 -0.8881
vn -0.3251 -0.8881 -0.3251
vn -0.8881 -0.3251 -0.3251
vn -0.3251 -0.8881 0.3251
vn -0.3251 -0.3250 0.8881
vn -0.8881 -0.3251 0.3251
vn -0.3251 0.3250 -0.8881
vn -0.8881 0.3251 -0.3251
vn -0.3251 0.8881 -0.3251
vn -0.3251 0.3251 0.8881
vn -0.3251 0.8881 0.3251
vn -0.8881 0.3251 0.3251
vn 0.3251 -0.3251 -0.8881
vn 0.8881 -0.3251 -0.3251
vn 0.3251 -0.8881 -0.3251
vn 0.3251 -0.3251 0.8881
vn 0.3251 -0.8881 0.3251
vn 0.8881 -0.3251 0.3251
vn 0.3251 0.3251 -0.8881
vn 0.3251 0.8881 -0.3251
vn 0.8881 0.3251 -0.3251
vn 0.3251 0.3251 0.8881
vn 0.8881 0.3251 0.3251
vn 0.3251 0.8881 0.3251
vn -0.3827 0.0000 -0.9239
vn -0.9239 0.0000 -0.3827
vn -0.3827 -0.9239 0.0000
vn -0.9239 -0.3827 0.0000
vn -0.3827 0.0000 0.9239
vn -0.9239 0.0000 0.3827
vn -0.3827 0.9239 0.0000
vn -0.9239 0.3827 0.0000
vn 0.0000 0.3827 -0.9239
vn 0.0000 0.9239 -0.3827
vn 0.0000 0.3827 0.9239
vn 0.0000 0.9239 0.3827
vn 0.9239 0.3827 0.0000
vn 0.3827 0.9239 0.0000
vn 0.3827 0.0000 -0.9239
vn 0.9239 0.0000 -0.3827
vn 0.3827 0.0000 0.9239
vn 0.9239 0.0000 0.3827
vn 0.3827 -0.9239 0.0000
vn 0.9239 -0.3827 0.0000
vn 0.0000 -0.3827 -0.9239
vn 0.0000 -0.9239 -0.3827
vn 0.0000 -0.3827 0.9239
vn 0.0000 -0.9239 0.3827
vn 0.0000 0.0000 -1.0000
s off
f 143/157/109 149/158/109 120/159/109 114/160/109
f 157/161/110 163/162/110 150/163/110 142/164/110
f 162/165/111 134/166/111 121/167/111 148/168/111
f 115/169/112 122/170/112 136/171/112 128/172/112
f 129/173/113 135/174/113 164/175/113 156/176/113
f 113/177/114 116/178/114 117/179/114 119/180/114
f 114/160/115 118/181/115 117/182/115 116/183/115
f 115/169/116 119/184/116 117/185/116 118/186/116
f 120/159/117 123/187/117 124/188/117 126/189/117
f 121/167/118 125/190/118 124/191/118 123/192/118
f 122/170/119 126/193/119 124/194/119 125/195/119
f 127/196/120 130/197/120 131/198/120 133/199/120
f 128/172/121 132/200/121 131/201/121 130/202/121
f 129/173/122 133/203/122 131/204/122 132/200/122
f 134/166/123 137/205/123 138/206/123 140/207/123
f 135/174/124 139/208/124 138/209/124 137/210/124
f 136/171/125 140/211/125 138/212/125 139/208/125
f 141/213/126 144/214/126 145/215/126 147/216/126
f 142/164/127 146/217/127 145/215/127 144/214/127
f 143/157/128 147/218/128 145/215/128 146/217/128
f 148/168/129 151/219/129 152/220/129 154/221/129
f 149/158/130 153/222/130 152/220/130 151/223/130
f 150/163/131 154/221/131 152/220/131 153/222/131
f 155/224/132 158/225/132 159/226/132 161/227/132
f 156/176/133 160/228/133 159/226/133 158/229/133
f 157/161/134 161/227/134 159/226/134 160/228/134
f 162/165/135 165/230/135 166/231/135 168/232/135
f 163/162/136 167/233/136 166/231/136 165/230/136
f 164/175/137 168/234/137 166/231/137 167/233/137
f 127/196/138 113/177/138 119/180/138 130/197/138
f 130/202/139 119/184/139 115/169/139 128/172/139
f 114/160/140 120/159/140 126/189/140 118/181/140
f 118/186/141 126/193/141 122/170/141 115/169/141
f 121/167/142 134/166/142 140/207/142 125/190/142
f 125/195/143 140/211/143 136/171/143 122/170/143
f 135/174/144 129/173/144 132/200/144 139/208/144
f 139/208/145 132/200/145 128/172/145 136/171/145
f 155/224/146 127/196/146 133/199/146 158/225/146
f 158/229/147 133/203/147 129/173/147 156/176/147
f 134/166/148 162/165/148 168/232/148 137/205/148
f 137/210/149 168/234/149 164/175/149 135/174/149
f 163/162/150 157/161/150 160/228/150 167/233/150
f 167/233/151 160/228/151 156/176/151 164/175/151
f 141/213/152 155/224/152 161/227/152 144/214/152
f 144/214/153 161/227/153 157/161/153 142/164/153
f 162/165/154 148/168/154 154/221/154 165/230/154
f 165/230/155 154/221/155 150/163/155 163/162/155
f 149/158/156 143/157/156 146/217/156 153/222/156
f 153/222/157 146/217/157 142/164/157 150/163/157
f 113/177/158 141/213/158 147/216/158 116/178/158
f 116/183/159 147/218/159 143/157/159 114/160/159
f 148/168/160 121/167/160 123/192/160 151/219/160
f 151/223/161 123/187/161 120/159/161 149/158/161
f 127/196/162 155/224/162 141/213/162 113/177/162
o rear_rail.001_Cube.012
v -1.192000 0.940500 1.357500
v -1.192000 0.932500 1.365500
v -1.200000 0.940500 1.365500
v -1.192000 0.934843 1.359843
v -1.196619 0.935881 1.360881
v -1.197657 0.934843 1.365500
v -1.197657 0.940500 1.359843
v -1.192000 0.932500 1.394500
v -1.192000 0.940500 1.402500
v -1.200000 0.940500 1.394500
v -1.192000 0.934843 1.400157
v -1.196619 0.935881 1.399119
v -1.197657 0.940500 1.400157
v -1.197657 0.934843 1.394500
v -1.192000 0.959500 1.357500
v -1.200000 0.959500 1.365500
v -1.192000 0.967500 1.365500
v -1.197657 0.959500 1.359843
v -1.196619 0.964119 1.360881
v -1.197657 0.965157 1.365500
v -1.192000 0.965157 1.359843
v -1.192000 0.959500 1.402500
v -1.192000 0.967500 1.394500
v -1.200000 0.959500 1.394500
v -1.192000 0.965157 1.400157
v -1.196619 0.964119 1.399119
v -1.197657 0.965157 1.394500
v -1.197657 0.959500 1.400157
v 1.192000 0.940500 1.357500
v 1.200000 0.940500 1.365500
v 1.192000 0.932500 1.365500
v 1.197657 0.940500 1.359843
v 1.196619 0.935881 1.360881
v 1.197657 0.934843 1.365500
v 1.192000 0.934843 1.359843
v 1.192000 0.940500 1.402500
v 1.192000 0.932500 1.394500
v 1.200000 0.940500 1.394500
v 1.192000 0.934843 1.400157
v 1.196619 0.935881 1.399119
v 1.197657 0.934843 1.394500
v 1.197657 0.940500 1.400157
v 1.192000 0.959500 1.357500
v 1.192000 0.967500 1.365500
v 1.200000 0.959500 1.365500
v 1.192000 0.965157 1.359843
v 1.196619 0.964119 1.360881
v 1.197657 0.965157 1.365500
v 1.197657 0.959500 1.359843
v 1.192000 0.959500 1.402500
v 1.200000 0.959500 1.394500
v 1.192000 0.967500 1.394500
v 1.197657 0.959500 1.400157
v 1.196619 0.964119 1.399119
v 1.197657 0.965157 1.394500
v 1.192000 0.965157 1.400157
vt 0.419444 0.750833
vt 0.580556 0.750833
vt 0.580556 0.999167
vt 0.419444 0.999167
vt 0.419444 0.557143
vt 0.580556 0.557143
vt 0.580556 0.692857
vt 0.419444 0.692857
vt 0.625833 0.557143
vt 0.874167 0.557143
vt 0.874167 0.692857
vt 0.625833 0.692857
vt 0.419444 0.057143
vt 0.580556 0.057143
vt 0.580556 0.192857
vt 0.419444 0.192857
vt 0.419444 0.250833
vt 0.580556 0.250833
vt 0.580556 0.499167
vt 0.419444 0.499167
vt 0.125833 0.692857
vt 0.125833 0.750000
vt 0.125352 0.750000
vt 0.125000 0.692857
vt 0.419444 1.000000
vt 0.393784 1.000000
vt 0.375000 0.999167
vt 0.375000 0.057143
vt 0.375000 0.024151
vt 0.419444 0.000000
vt 0.625000 0.999167
vt 0.625000 0.999648
vt 0.580555 1.000000
vt 0.875000 0.692857
vt 0.875000 0.725849
vt 0.874167 0.750000
vt 0.580556 0.000000
vt 0.606216 0.000000
vt 0.625000 0.057143
vt 0.125833 0.557143
vt 0.125000 0.557143
vt 0.125000 0.524151
vt 0.125833 0.500000
vt 0.419444 0.250000
vt 0.393784 0.250000
vt 0.375000 0.192857
vt 0.375000 0.250833
vt 0.375000 0.250352
vt 0.874167 0.500000
vt 0.874648 0.500000
vt 0.875000 0.557143
vt 0.580556 0.250000
vt 0.606216 0.250000
vt 0.625000 0.250833
vt 0.625000 0.192857
vt 0.625000 0.225849
vt 0.374167 0.692857
vt 0.375000 0.692857
vt 0.381261 0.742067
vt 0.374167 0.750000
vt 0.419444 0.750000
vt 0.375000 0.750833
vt 0.625833 0.750000
vt 0.618856 0.741950
vt 0.625000 0.692857
vt 0.580556 0.750000
vt 0.625000 0.750833
vt 0.374167 0.557143
vt 0.374167 0.500000
vt 0.381144 0.508050
vt 0.375000 0.557143
vt 0.419444 0.500000
vt 0.375000 0.499167
vt 0.625000 0.557143
vt 0.618739 0.507933
vt 0.625833 0.500000
vt 0.580556 0.500000
vt 0.625000 0.499167
vn 0.0000 -1.0000 0.0000
vn 1.0000 0.0000 0.0000
vn 0.0000 0.0000 1.0000
vn -1.0000 0.0000 0.0000
vn 0.0000 1.0000 0.0000
vn -0.3251 -0.3251 -0.8881
vn -0.3251 -0.8881 -0.3250
vn -0.8881 -0.3251 -0.3251
vn -0.3251 -0.8881 0.3250
vn -0.3251 -0.3251 0.8881
vn -0.8881 -0.3251 0.3251
vn -0.3251 0.3251 -0.8881
vn -0.8881 0.3251 -0.3251
vn -0.3251 0.8881 -0.3251
vn -0.3251 0.3251 0.8881
vn -0.3251 0.8881 0.3251
vn -0.8881 0.3251 0.3251
vn 0.3251 -0.3251 -0.8881
vn 0.8881 -0.3251 -0.3251
vn 0.3251 -0.8881 -0.3250
vn 0.3251 -0.3251 0.8881
vn 0.3251 -0.8881 0.3250
vn 0.8881 -0.3251 0.3251
vn 0.3251 0.3251 -0.8881
vn 0.3251 0.8881 -0.3251
vn 0.8881 0.3251 -0.3251
vn 0.3251 0.3251 0.8881
vn 0.8881 0.3251 0.3251
vn 0.3251 0.8881 0.3251
vn -0.3827 0.0000 -0.9239
vn -0.9239 0.0000 -0.3827
vn -0.3827 -0.9239 0.0000
vn -0.9239 -0.3827 0.0000
vn -0.3827 0.0000 0.9239
vn -0.9239 0.0000 0.3827
vn -0.3827 0.9239 0.0000
vn -0.9239 0.3827 0.0000
vn 0.0000 0.3827 -0.9239
vn 0.0000 0.9239 -0.3827
vn 0.0000 0.3827 0.9239
vn 0.0000 0.9239 0.3827
vn 0.9239 0.3827 0.0000
vn 0.3827 0.9239 0.0000
vn 0.3827 0.0000 -0.9239
vn 0.9239 0.0000 -0.3827
vn 0.3827 0.0000 0.9239
vn 0.9239 0.0000 0.3827
vn 0.3827 -0.9239 0.0000
vn 0.9239 -0.3827 0.0000
vn 0.0000 -0.3827 -0.9239
vn 0.0000 -0.9239 -0.3827
vn 0.0000 -0.3827 0.9239
vn 0.0000 -0.9239 0.3827
vn 0.0000 0.0000 -1.0000
s off
f 199/235/163 205/236/163 176/237/163 170/238/163
f 213/239/164 219/240/164 206/241/164 198/242/164
f 218/243/165 190/244/165 177/245/165 204/246/165
f 171/247/166 178/248/166 192/249/166 184/250/166
f 185/251/167 191/252/167 220/253/167 212/254/167
f 169/255/168 172/256/168 173/257/168 175/258/168
f 170/238/169 174/259/169 173/260/169 172/261/169
f 171/247/170 175/262/170 173/263/170 174/264/170
f 176/237/171 179/265/171 180/266/171 182/267/171
f 177/245/172 181/268/172 180/269/172 179/270/172
f 178/248/173 182/271/173 180/272/173 181/273/173
f 183/274/174 186/275/174 187/276/174 189/277/174
f 184/250/175 188/278/175 187/279/175 186/280/175
f 185/251/176 189/281/176 187/282/176 188/278/176
f 190/244/177 193/283/177 194/284/177 196/285/177
f 191/252/178 195/286/178 194/287/178 193/288/178
f 192/249/179 196/289/179 194/290/179 195/286/179
f 197/291/180 200/292/180 201/293/180 203/294/180
f 198/242/181 202/295/181 201/293/181 200/292/181
f 199/235/182 203/296/182 201/293/182 202/295/182
f 204/246/183 207/297/183 208/298/183 210/299/183
f 205/236/184 209/300/184 208/298/184 207/301/184
f 206/241/185 210/299/185 208/298/185 209/300/185
f 211/302/186 214/303/186 215/304/186 217/305/186
f 212/254/187 216/306/187 215/304/187 214/307/187
f 213/239/188 217/305/188 215/304/188 216/306/188
f 218/243/189 221/308/189 222/309/189 224/310/189
f 219/240/190 223/311/190 222/309/190 221/308/190
f 220/253/191 224/312/191 222/309/191 223/311/191
f 183/274/192 169/255/192 175/258/192 186/275/192
f 186/280/193 175/262/193 171/247/193 184/250/193
f 170/238/194 176/237/194 182/267/194 174/259/194
f 174/264/195 182/271/195 178/248/195 171/247/195
f 177/245/196 190/244/196 196/285/196 181/268/196
f 181/273/197 196/289/197 192/249/197 178/248/197
f 191/252/198 185/251/198 188/278/198 195/286/198
f 195/286/199 188/278/199 184/250/199 192/249/199
f 211/302/200 183/274/200 189/277/200 214/303/200
f 214/307/201 189/281/201 185/251/201 212/254/201
f 190/244/202 218/243/202 224/310/202 193/283/202
f 193/288/203 224/312/203 220/253/203 191/252/203
f 219/240/204 213/239/204 216/306/204 223/311/204
f 223/311/205 216/306/205 212/254/205 220/253/205
f 197/291/206 211/302/206 217/305/206 200/292/206
f 200/292/207 217/305/207 213/239/207 198/242/207
f 218/243/208 204/246/208 210/299/208 221/308/208
f 221/308/209 210/299/209 206/241/209 219/240/209
f 205/236/210 199/235/210 202/295/210 209/300/210
f 209/300/211 202/295/211 198/242/211 206/241/211
f 169/255/212 197/291/212 203/294/212 172/256/212
f 172/261/213 203/296/213 199/235/213 170/238/213
f 204/246/214 177/245/214 179/270/214 207/297/214
f 207/301/215 179/265/215 176/237/215 205/236/215
f 183/274/216 211/302/216 197/291/216 169/255/216
o side_rail.002_Cube.013
v -1.209500 -0.942000 1.357500
v -1.209500 -0.950000 1.365500
v -1.217500 -0.942000 1.365500
v -1.209500 -0.947657 1.359843
v -1.214119 -0.946619 1.360881
v -1.215157 -0.947657 1.365500
v -1.215157 -0.942000 1.359843
v -1.209500 -0.950000 1.394500
v -1.209500 -0.942000 1.402500
v -1.217500 -0.942000 1.394500
v -1.209500 -0.947657 1.400157
v -1.214119 -0.946619 1.399119
v -1.215157 -0.942000 1.400157
v -1.215157 -0.947657 1.394500
v -1.209500 0.942000 1.357500
v -1.217500 0.942000 1.365500
v -1.209500 0.950000 1.365500
v -1.215157 0.942000 1.359843
v -1.214119 0.946619 1.360881
v -1.215157 0.947657 1.365500
v -1.209500 0.947657 1.359843
v -1.209500 0.942000 1.402500
v -1.209500 0.950000 1.394500
v -1.217500 0.942000 1.394500
v -1.209500 0.947657 1.400157
v -1.214119 0.946619 1.399119
v -1.215157 0.947657 1.394500
v -1.215157 0.942000 1.400157
v -1.190500 -0.942000 1.357500
v -1.182500 -0.942000 1.365500
v -1.190500 -0.950000 1.365500
v -1.184843 -0.942000 1.359843
v -1.185881 -0.946619 1.360881
v -1.184843 -0.947657 1.365500
v -1.190500 -0.947657 1.359843
v -1.190500 -0.942000 1.402500
v -1.190500 -0.950000 1.394500
v -1.182500 -0.942000 1.394500
v -1.190500 -0.947657 1.400157
v -1.185881 -0.946619 1.399119
v -1.184843 -0.947657 1.394500
v -1.184843 -0.942000 1.400157
v -1.190500 0.942000 1.357500
v -1.190500 0.950000 1.365500
v -1.182500 0.942000 1.365500
v -1.190500 0.947657 1.359843
v -1.185881 0.946619 1.360881
v -1.184843 0.947657 1.365500
v -1.184843 0.942000 1.359843
v -1.190500 0.942000 1.402500
v -1.182500 0.942000 1.394500
v -1.190500 0.950000 1.394500
v -1.184843 0.942000 1.400157
v -1.185881 0.946619 1.399119
v -1.184843 0.947657 1.394500
v -1.190500 0.947657 1.400157
vt 0.419444 0.807143
vt 0.580556 0.807143
vt 0.580556 0.942857
vt 0.419444 0.942857
vt 0.419444 0.501053
vt 0.580556 0.501053
vt 0.580556 0.748947
vt 0.419444 0.748947
vt 0.682143 0.501053
vt 0.817857 0.501053
vt 0.817857 0.748947
vt 0.682143 0.748947
vt 0.419444 0.001053
vt 0.580556 0.001053
vt 0.580556 0.248947
vt 0.419444 0.248947
vt 0.419444 0.307143
vt 0.580556 0.307143
vt 0.580556 0.442857
vt 0.419444 0.442857
vt 0.182143 0.748947
vt 0.182143 0.750000
vt 0.149151 0.750000
vt 0.125000 0.748947
vt 0.419444 1.000000
vt 0.393784 1.000000
vt 0.375000 0.942857
vt 0.375000 0.001053
vt 0.375000 0.000445
vt 0.419444 0.000000
vt 0.625000 0.942857
vt 0.625000 0.975849
vt 0.580555 1.000000
vt 0.875000 0.748947
vt 0.875000 0.749555
vt 0.817857 0.750000
vt 0.580556 0.000000
vt 0.606216 0.000000
vt 0.625000 0.001053
vt 0.182143 0.501053
vt 0.125000 0.501053
vt 0.125000 0.500445
vt 0.182143 0.500000
vt 0.419444 0.250000
vt 0.393784 0.250000
vt 0.375000 0.248947
vt 0.375000 0.307143
vt 0.375000 0.274151
vt 0.817857 0.500000
vt 0.850849 0.500000
vt 0.875000 0.501053
vt 0.580556 0.250000
vt 0.606216 0.250000
vt 0.625000 0.307143
vt 0.625000 0.248947
vt 0.625000 0.249555
vt 0.317857 0.748947
vt 0.375000 0.748947
vt 0.381261 0.757902
vt 0.317857 0.750000
vt 0.419444 0.750000
vt 0.375000 0.807143
vt 0.682143 0.750000
vt 0.626789 0.749852
vt 0.625000 0.748947
vt 0.580556 0.750000
vt 0.625000 0.807143
vt 0.317857 0.501053
vt 0.317857 0.500000
vt 0.373211 0.500148
vt 0.375000 0.501053
vt 0.419444 0.500000
vt 0.375000 0.442857
vt 0.625000 0.501053
vt 0.618739 0.492098
vt 0.682143 0.500000
vt 0.580556 0.500000
vt 0.625000 0.442857
vn 0.0000 -1.0000 0.0000
vn 1.0000 0.0000 0.0000
vn 0.0000 0.0000 1.0000
vn -1.0000 0.0000 0.0000
vn 0.0000 1.0000 0.0000
vn -0.3251 -0.3251 -0.8881
vn -0.3251 -0.8881 -0.3251
vn -0.8881 -0.3251 -0.3251
vn -0.3251 -0.8881 0.3251
vn -0.3251 -0.3251 0.8881
vn -0.8881 -0.3251 0.3251
vn -0.3251 0.3251 -0.8881
vn -0.8881 0.3251 -0.3251
vn -0.3251 0.8881 -0.3251
vn -0.3251 0.3251 0.8881
vn -0.3251 0.8881 0.3251
vn -0.8881 0.3251 0.3251
vn 0.3251 -0.3251 -0.8881
vn 0.8881 -0.3251 -0.3251
vn 0.3251 -0.8881 -0.3251
vn 0.3251 -0.3251 0.8881
vn 0.3251 -0.8881 0.3251
vn 0.8881 -0.3251 0.3251
vn 0.3251 0.3251 -0.8881
vn 0.3251 0.8881 -0.3251
vn 0.8881 0.3251 -0.3251
vn 0.3251 0.3251 0.8881
vn 0.8881 0.3251 0.3251
vn 0.3251 0.8881 0.3251
vn -0.3827 0.0000 -0.9239
vn -0.9239 0.0000 -0.3827
vn -0.3827 -0.9239 0.0000
vn -0.9239 -0.3827 0.0000
vn -0.3827 0.0000 0.9239
vn -0.9239 0.0000 0.3827
vn -0.3827 0.9239 0.0000
vn -0.9239 0.3827 0.0000
vn 0.0000 0.3827 -0.9239
vn 0.0000 0.9239 -0.3827
vn 0.0000 0.3827 0.9239
vn 0.0000 0.9239 0.3827
vn 0.9239 0.3827 0.0000
vn 0.3827 0.9239 0.0000
vn 0.3827 0.0000 -0.9239
vn 0.9239 0.0000 -0.3827
vn 0.3827 0.0000 0.9239
vn 0.9239 0.0000 0.3827
vn 0.3827 -0.9239 0.0000
vn 0.9239 -0.3827 0.0000
vn 0.0000 -0.3827 -0.9239
vn 0.0000 -0.9239 -0.3827
vn 0.0000 -0.3827 0.9239
vn 0.0000 -0.9239 0.3827
vn 0.0000 0.0000 -1.0000
s off
f 255/313/217 261/314/217 232/315/217 226/316/217
f 269/317/218 275/318/218 262/319/218 254/320/218
f 274/321/219 246/322/219 233/323/219 260/324/219
f 227/325/220 234/326/220 248/327/220 240/328/220
f 241/329/221 247/330/221 276/331/221 268/332/221
f 225/333/222 228/334/222 229/335/222 231/336/222
f 226/316/223 230/337/223 229/338/223 228/339/223
f 227/325/224 231/340/224 229/341/224 230/342/224
f 232/315/225 235/343/225 236/344/225 238/345/225
f 233/323/226 237/346/226 236/347/226 235/348/226
f 234/326/227 238/349/227 236/350/227 237/351/227
f 239/352/228 242/353/228 243/354/228 245/355/228
f 240/328/229 244/356/229 243/357/229 242/358/229
f 241/329/230 245/359/230 243/360/230 244/356/230
f 246/322/231 249/361/231 250/362/231 252/363/231
f 247/330/232 251/364/232 250/365/232 249/366/232
f 248/327/233 252/367/233 250/368/233 251/364/233
f 253/369/234 256/370/234 257/371/234 259/372/234
f 254/320/235 258/373/235 257/371/235 256/370/235
f 255/313/236 259/374/236 257/371/236 258/373/236
f 260/324/237 263/375/237 264/376/237 266/377/237
f 261/314/238 265/378/238 264/376/238 263/379/238
f 262/319/239 266/377/239 264/376/239 265/378/239
f 267/380/240 270/381/240 271/382/240 273/383/240
f 268/332/241 272/384/241 271/382/241 270/385/241
f 269/317/242 273/383/242 271/382/242 272/384/242
f 274/321/243 277/386/243 278/387/243 280/388/243
f 275/318/244 279/389/244 278/387/244 277/386/244
f 276/331/245 280/390/245 278/387/245 279/389/245
f 239/352/246 225/333/246 231/336/246 242/353/246
f 242/358/247 231/340/247 227/325/247 240/328/247
f 226/316/248 232/315/248 238/345/248 230/337/248
f 230/342/249 238/349/249 234/326/249 227/325/249
f 233/323/250 246/322/250 252/363/250 237/346/250
f 237/351/251 252/367/251 248/327/251 234/326/251
f 247/330/252 241/329/252 244/356/252 251/364/252
f 251/364/253 244/356/253 240/328/253 248/327/253
f 267/380/254 239/352/254 245/355/254 270/381/254
f 270/385/255 245/359/255 241/329/255 268/332/255
f 246/322/256 274/321/256 280/388/256 249/361/256
f 249/366/257 280/390/257 276/331/257 247/330/257
f 275/318/258 269/317/258 272/384/258 279/389/258
f 279/389/259 272/384/259 268/332/259 276/331/259
f 253/369/260 267/380/260 273/383/260 256/370/260
f 256/370/261 273/383/261 269/317/261 254/320/261
f 274/321/262 260/324/262 266/377/262 277/386/262
f 277/386/263 266/377/263 262/319/263 275/318/263
f 261/314/264 255/313/264 258/373/264 265/378/264
f 265/378/265 258/373/265 254/320/265 262/319/265
f 225/333/266 253/369/266 259/372/266 228/334/266
f 228/339/267 259/374/267 255/313/267 226/316/267
f 260/324/268 233/323/268 235/348/268 263/375/268
f 263/379/269 235/343/269 232/315/269 261/314/269
f 239/352/270 267/380/270 253/369/270 225/333/270
o side_rail.003_Cube.014
v 1.190500 -0.942000 1.357500
v 1.190500 -0.950000 1.365500
v 1.182500 -0.942000 1.365500
v 1.190500 -0.947657 1.359843
v 1.185881 -0.946619 1.360881
v 1.184843 -0.947657 1.365500
v 1.184843 -0.942000 1.359843
v 1.190500 -0.950000 1.394500
v 1.190500 -0.942000 1.402500
v 1.182500 -0.942000 1.394500
v 1.190500 -0.947657 1.400157
v 1.185881 -0.946619 1.399119
v 1.184843 -0.942000 1.400157
v 1.184843 -0.947657 1.394500
v 1.190500 0.942000 1.357500
v 1.182500 0.942000 1.365500
v 1.190500 0.950000 1.365500
v 1.184843 0.942000 1.359843
v 1.185881 0.946619 1.360881
v 1.184843 0.947657 1.365500
v 1.190500 0.947657 1.359843
v 1.190500 0.942000 1.402500
v 1.190500 0.950000 1.394500
v 1.182500 0.942000 1.394500
v 1.190500 0.947657 1.400157
v 1.185881 0.946619 1.399119
v 1.184843 0.947657 1.394500
v 1.184843 0.942000 1.400157
v 1.209500 -0.942000 1.357500
v 1.217500 -0.942000 1.365500
v 1.209500 -0.950000 1.365500
v 1.215157 -0.942000 1.359843
v 1.214119 -0.946619 1.360881
v 1.215157 -0.947657 1.365500
v 1.209500 -0.947657 1.359843
v 1.209500 -0.942000 1.402500
v 1.209500 -0.950000 1.394500
v 1.217500 -0.942000 1.394500
v 1.209500 -0.947657 1.400157
v 1.214119 -0.946619 1.399119
v 1.215157 -0.947657 1.394500
v 1.215157 -0.942000 1.400157
v 1.209500 0.942000 1.357500
v 1.209500 0.950000 1.365500
v 1.217500 0.942000 1.365500
v 1.209500 0.947657 1.359843
v 1.214119 0.946619 1.360881
v 1.215157 0.947657 1.365500
v 1.215157 0.942000 1.359843
v 1.209500 0.942000 1.402500
v 1.217500 0.942000 1.394500
v 1.209500 0.950000 1.394500
v 1.215157 0.942000 1.400157
v 1.214119 0.946619 1.399119
v 1.215157 0.947657 1.394500
v 1.209500 0.947657 1.400157
vt 0.419444 0.807143
vt 0.580556 0.807143
vt 0.580556 0.942857
vt 0.419444 0.942857
vt 0.419444 0.501053
vt 0.580556 0.501053
vt 0.580556 0.748947
vt 0.419444 0.748947
vt 0.682143 0.501053
vt 0.817857 0.501053
vt 0.817857 0.748947
vt 0.682143 0.748947
vt 0.419444 0.001053
vt 0.580556 0.001053
vt 0.580556 0.248947
vt 0.419444 0.248947
vt 0.419444 0.307143
vt 0.580556 0.307143
vt 0.580556 0.442857
vt 0.419444 0.442857
vt 0.182143 0.748947
vt 0.182143 0.750000
vt 0.149151 0.750000
vt 0.125000 0.748947
vt 0.419444 1.000000
vt 0.393784 1.000000
vt 0.375000 0.942857
vt 0.375000 0.001053
vt 0.375000 0.000445
vt 0.419444 0.000000
vt 0.625000 0.942857
vt 0.625000 0.975849
vt 0.580555 1.000000
vt 0.875000 0.748947
vt 0.875000 0.749555
vt 0.817857 0.750000
vt 0.580556 0.000000
vt 0.606216 0.000000
vt 0.625000 0.001053
vt 0.182143 0.501053
vt 0.125000 0.501053
vt 0.125000 0.500445
vt 0.182143 0.500000
vt 0.419444 0.250000
vt 0.393784 0.250000
vt 0.375000 0.248947
vt 0.375000 0.307143
vt 0.375000 0.274151
vt 0.817857 0.500000
vt 0.850849 0.500000
vt 0.875000 0.501053
vt 0.580556 0.250000
vt 0.606216 0.250000
vt 0.625000 0.307143
vt 0.625000 0.248947
vt 0.625000 0.249555
vt 0.317857 0.748947
vt 0.375000 0.748947
vt 0.381261 0.757902
vt 0.317857 0.750000
vt 0.419444 0.750000
vt 0.375000 0.807143
vt 0.682143 0.750000
vt 0.626789 0.749852
vt 0.625000 0.748947
vt 0.580556 0.750000
vt 0.625000 0.807143
vt 0.317857 0.501053
vt 0.317857 0.500000
vt 0.373211 0.500148
vt 0.375000 0.501053
vt 0.419444 0.500000
vt 0.375000 0.442857
vt 0.625000 0.501053
vt 0.618739 0.492098
vt 0.682143 0.500000
vt 0.580556 0.500000
vt 0.625000 0.442857
vn 0.0000 -1.0000 0.0000
vn 1.0000 0.0000 0.0000
vn 0.0000 0.0000 1.0000
vn -1.0000 0.0000 0.0000
vn 0.0000 1.0000 0.0000
vn -0.3251 -0.3251 -0.8881
vn -0.3251 -0.8881 -0.3251
vn -0.8881 -0.3251 -0.3251
vn -0.3251 -0.8881 0.3251
vn -0.3251 -0.3251 0.8881
vn -0.8881 -0.3251 0.3251
vn -0.3251 0.3251 -0.8881
vn -0.8881 0.3251 -0.3251
vn -0.3251 0.8881 -0.3251
vn -0.3251 0.3251 0.8881
vn -0.3251 0.8881 0.3251
vn -0.8881 0.3251 0.3251
vn 0.3251 -0.3251 -0.8881
vn 0.8881 -0.3251 -0.3251
vn 0.3251 -0.8881 -0.3251
vn 0.3251 -0.3251 0.8881
vn 0.3251 -0.8881 0.3251
vn 0.8881 -0.3251 0.3251
vn 0.3251 0.3251 -0.8881
vn 0.3251 0.8881 -0.3251
vn 0.8881 0.3251 -0.3251
vn 0.3251 0.3251 0.8881
vn 0.8881 0.3251 0.3251
vn 0.3251 0.8881 0.3251
vn -0.3827 0.0000 -0.9239
vn -0.9239 0.0000 -0.3827
vn -0.3827 -0.9239 0.0000
vn -0.9239 -0.3827 0.0000
vn -0.3827 0.0000 0.9239
vn -0.9239 0.0000 0.3827
vn -0.3827 0.9239 0.0000
vn -0.9239 0.3827 0.0000
vn 0.0000 0.3827 -0.9239
vn 0.0000 0.9239 -0.3827
vn 0.0000 0.3827 0.9239
vn 0.0000 0.9239 0.3827
vn 0.9239 0.3827 0.0000
vn 0.3827 0.9239 0.0000
vn 0.3827 0.0000 -0.9239
vn 0.9239 0.0000 -0.3827
vn 0.3827 0.0000 0.9239
vn 0.9239 0.0000 0.3827
vn 0.3827 -0.9239 0.0000
vn 0.9239 -0.3827 0.0000
vn 0.0000 -0.3827 -0.9239
vn 0.0000 -0.9239 -0.3827
vn 0.0000 -0.3827 0.9239
vn 0.0000 -0.9239 0.3827
vn 0.0000 0.0000 -1.0000
s off
f 311/391/271 317/392/271 288/393/271 282/394/271
f 325/395/272 331/396/272 318/397/272 310/398/272
f 330/399/273 302/400/273 289/401/273 316/402/273
f 283/403/274 290/404/274 304/405/274 296/406/274
f 297/407/275 303/408/275 332/409/275 324/410/275
f 281/411/276 284/412/276 285/413/276 287/414/276
f 282/394/277 286/415/277 285/416/277 284/417/277
f 283/403/278 287/418/278 285/419/278 286/420/278
f 288/393/279 291/421/279 292/422/279 294/423/279
f 289/401/280 293/424/280 292/425/280 291/426/280
f 290/404/281 294/427/281 292/428/281 293/429/281
f 295/430/282 298/431/282 299/432/282 301/433/282
f 296/406/283 300/434/283 299/435/283 298/436/283
f 297/407/284 301/437/284 299/438/284 300/434/284
f 302/400/285 305/439/285 306/440/285 308/441/285
f 303/408/286 307/442/286 306/443/286 305/444/286
f 304/405/287 308/445/287 306/446/287 307/442/287
f 309/447/288 312/448/288 313/449/288 315/450/288
f 310/398/289 314/451/289 313/449/289 312/448/289
f 311/391/290 315/452/290 313/449/290 314/451/290
f 316/402/291 319/453/291 320/454/291 322/455/291
f 317/392/292 321/456/292 320/454/292 319/457/292
f 318/397/293 322/455/293 320/454/293 321/456/293
f 323/458/294 326/459/294 327/460/294 329/461/294
f 324/410/295 328/462/295 327/460/295 326/463/295
f 325/395/296 329/461/296 327/460/296 328/462/296
f 330/399/297 333/464/297 334/465/297 336/466/297
f 331/396/298 335/467/298 334/465/298 333/464/298
f 332/409/299 336/468/299 334/465/299 335/467/299
f 295/430/300 281/411/300 287/414/300 298/431/300
f 298/436/301 287/418/301 283/403/301 296/406/301
f 282/394/302 288/393/302 294/423/302 286/415/302
f 286/420/303 294/427/303 290/404/303 283/403/303
f 289/401/304 302/400/304 308/441/304 293/424/304
f 293/429/305 308/445/305 304/405/305 290/404/305
f 303/408/306 297/407/306 300/434/306 307/442/306
f 307/442/307 300/434/307 296/406/307 304/405/307
f 323/458/308 295/430/308 301/433/308 326/459/308
f 326/463/309 301/437/309 297/407/309 324/410/309
f 302/400/310 330/399/310 336/466/310 305/439/310
f 305/444/311 336/468/311 332/409/311 303/408/311
f 331/396/312 325/395/312 328/462/312 335/467/312
f 335/467/313 328/462/313 324/410/313 332/409/313
f 309/447/314 323/458/314 329/461/314 312/448/314
f 312/448/315 329/461/315 325/395/315 310/398/315
f 330/399/316 316/402/316 322/455/316 333/464/316
f 333/464/317 322/455/317 318/397/317 331/396/317
f 317/392/318 311/391/318 314/451/318 321/456/318
f 321/456/319 314/451/319 310/398/319 318/397/319
f 281/411/320 309/447/320 315/450/320 284/412/320
f 284/417/321 315/452/321 311/391/321 282/394/321
f 316/402/322 289/401/322 291/426/322 319/453/322
f 319/457/323 291/421/323 288/393/323 317/392/323
f 295/430/324 323/458/324 309/447/324 281/411/324
o control_screen_housing_Cube.029
v -1.162000 -0.852000 1.000000
v -1.162000 -0.860000 1.008000
v -1.170000 -0.852000 1.008000
v -1.162000 -0.857657 1.002343
v -1.166619 -0.856619 1.003381
v -1.167657 -0.857657 1.008000
v -1.167657 -0.852000 1.002343
v -1.162000 -0.860000 1.072000
v -1.162000 -0.852000 1.080000
v -1.170000 -0.852000 1.072000
v -1.162000 -0.857657 1.077657
v -1.166619 -0.856619 1.076619
v -1.167657 -0.852000 1.077657
v -1.167657 -0.857657 1.072000
v -1.162000 -0.548000 1.000000
v -1.170000 -0.548000 1.008000
v -1.162000 -0.540000 1.008000
v -1.167657 -0.548000 1.002343
v -1.166619 -0.543381 1.003381
v -1.167657 -0.542343 1.008000
v -1.162000 -0.542343 1.002343
v -1.162000 -0.548000 1.080000
v -1.162000 -0.540000 1.072000
v -1.170000 -0.548000 1.072000
v -1.162000 -0.542343 1.077657
v -1.166619 -0.543381 1.076619
v -1.167657 -0.542343 1.072000
v -1.167657 -0.548000 1.077657
v -0.898000 -0.852000 1.000000
v -0.890000 -0.852000 1.008000
v -0.898000 -0.860000 1.008000
v -0.892343 -0.852000 1.002343
v -0.893381 -0.856619 1.003381
v -0.892343 -0.857657 1.008000
v -0.898000 -0.857657 1.002343
v -0.898000 -0.852000 1.080000
v -0.898000 -0.860000 1.072000
v -0.890000 -0.852000 1.072000
v -0.898000 -0.857657 1.077657
v -0.893381 -0.856619 1.076619
v -0.892343 -0.857657 1.072000
v -0.892343 -0.852000 1.077657
v -0.898000 -0.548000 1.000000
v -0.898000 -0.540000 1.008000
v -0.890000 -0.548000 1.008000
v -0.898000 -0.542343 1.002343
v -0.893381 -0.543381 1.003381
v -0.892343 -0.542343 1.008000
v -0.892343 -0.548000 1.002343
v -0.898000 -0.548000 1.080000
v -0.890000 -0.548000 1.072000
v -0.898000 -0.540000 1.072000
v -0.892343 -0.548000 1.077657
v -0.893381 -0.543381 1.076619
v -0.892343 -0.542343 1.072000
v -0.898000 -0.542343 1.077657
vt 0.400000 0.757143
vt 0.600000 0.757143
vt 0.600000 0.992857
vt 0.400000 0.992857
vt 0.400000 0.506250
vt 0.600000 0.506250
vt 0.600000 0.743750
vt 0.400000 0.743750
vt 0.632143 0.506250
vt 0.867857 0.506250
vt 0.867857 0.743750
vt 0.632143 0.743750
vt 0.400000 0.006250
vt 0.600000 0.006250
vt 0.600000 0.243750
vt 0.400000 0.243750
vt 0.400000 0.257143
vt 0.600000 0.257143
vt 0.600000 0.492857
vt 0.400000 0.492857
vt 0.132143 0.743750
vt 0.132143 0.750000
vt 0.128019 0.750000
vt 0.125000 0.743750
vt 0.400000 1.000000
vt 0.385566 1.000000
vt 0.375000 0.992857
vt 0.375000 0.006250
vt 0.375000 0.002642
vt 0.400000 0.000000
vt 0.625000 0.992857
vt 0.625000 0.996981
vt 0.600000 1.000000
vt 0.875000 0.743750
vt 0.875000 0.747358
vt 0.867857 0.750000
vt 0.600000 0.000000
vt 0.614434 0.000000
vt 0.625000 0.006250
vt 0.132143 0.506250
vt 0.125000 0.506250
vt 0.125000 0.502642
vt 0.132143 0.500000
vt 0.400000 0.250000
vt 0.385566 0.250000
vt 0.375000 0.243750
vt 0.375000 0.257143
vt 0.375000 0.253019
vt 0.867857 0.500000
vt 0.871981 0.500000
vt 0.875000 0.506250
vt 0.600000 0.250000
vt 0.614434 0.250000
vt 0.625000 0.257143
vt 0.625000 0.243750
vt 0.625000 0.247358
vt 0.367857 0.743750
vt 0.375000 0.743750
vt 0.378522 0.750126
vt 0.367857 0.750000
vt 0.400000 0.750000
vt 0.375000 0.743750
vt 0.375000 0.757143
vt 0.632143 0.750000
vt 0.622484 0.749119
vt 0.625000 0.743750
vt 0.600000 0.750000
vt 0.625000 0.757143
vt 0.625000 0.743750
vt 0.367857 0.506250
vt 0.367857 0.500000
vt 0.377516 0.500881
vt 0.375000 0.506250
vt 0.400000 0.500000
vt 0.375000 0.492857
vt 0.625000 0.506250
vt 0.621478 0.499874
vt 0.632143 0.500000
vt 0.600000 0.500000
vt 0.625000 0.492857
vn 0.0000 -1.0000 0.0000
vn 1.0000 0.0000 0.0000
vn 0.0000 0.0000 1.0000
vn -1.0000 0.0000 0.0000
vn 0.0000 1.0000 0.0000
vn -0.3251 -0.3251 -0.8881
vn -0.3251 -0.8881 -0.3251
vn -0.8881 -0.3250 -0.3250
vn -0.3251 -0.8881 0.3251
vn -0.3250 -0.3251 0.8881
vn -0.8881 -0.3251 0.3250
vn -0.3251 0.3251 -0.8881
vn -0.8881 0.3251 -0.3250
vn -0.3251 0.8881 -0.3251
vn -0.3250 0.3251 0.8881
vn -0.3251 0.8881 0.3251
vn -0.8881 0.3250 0.3250
vn 0.3251 -0.3251 -0.8881
vn 0.8881 -0.3251 -0.3251
vn 0.3251 -0.8881 -0.3250
vn 0.3250 -0.3251 0.8881
vn 0.3251 -0.8881 0.3250
vn 0.8881 -0.3250 0.3251
vn 0.3251 0.3251 -0.8881
vn 0.3251 0.8881 -0.3251
vn 0.8881 0.3250 -0.3251
vn 0.3250 0.3251 0.8881
vn 0.8881 0.3250 0.3251
vn 0.3251 0.8881 0.3251
vn -0.3827 0.0000 -0.9239
vn -0.9239 0.0000 -0.3827
vn -0.3827 -0.9239 0.0000
vn -0.9239 -0.3827 0.0000
vn -0.3827 0.0000 0.9239
vn -0.9239 0.0000 0.3827
vn -0.3827 0.9239 0.0000
vn -0.9239 0.3827 0.0000
vn 0.0000 0.3827 -0.9239
vn 0.0000 0.9239 -0.3827
vn 0.0000 0.3827 0.9239
vn 0.0000 0.9239 0.3827
vn 0.9239 0.3827 0.0000
vn 0.3827 0.9239 0.0000
vn 0.3827 0.0000 -0.9239
vn 0.9239 0.0000 -0.3827
vn 0.3827 0.0000 0.9239
vn 0.9239 0.0000 0.3827
vn 0.3827 -0.9239 0.0000
vn 0.9239 -0.3827 0.0000
vn 0.0000 -0.3827 -0.9239
vn 0.0000 -0.9239 -0.3827
vn 0.0000 -0.3827 0.9239
vn 0.0000 -0.9239 0.3827
vn 0.0000 0.0000 -1.0000
s off
f 367/469/325 373/470/325 344/471/325 338/472/325
f 381/473/326 387/474/326 374/475/326 366/476/326
f 386/477/327 358/478/327 345/479/327 372/480/327
f 339/481/328 346/482/328 360/483/328 352/484/328
f 353/485/329 359/486/329 388/487/329 380/488/329
f 337/489/330 340/490/330 341/491/330 343/492/330
f 338/472/331 342/493/331 341/494/331 340/495/331
f 339/481/332 343/496/332 341/497/332 342/498/332
f 344/471/333 347/499/333 348/500/333 350/501/333
f 345/479/334 349/502/334 348/503/334 347/504/334
f 346/482/335 350/505/335 348/506/335 349/507/335
f 351/508/336 354/509/336 355/510/336 357/511/336
f 352/484/337 356/512/337 355/513/337 354/514/337
f 353/485/338 357/515/338 355/516/338 356/512/338
f 358/478/339 361/517/339 362/518/339 364/519/339
f 359/486/340 363/520/340 362/521/340 361/522/340
f 360/483/341 364/523/341 362/524/341 363/520/341
f 365/525/342 368/526/342 369/527/342 371/528/342
f 366/476/343 370/529/343 369/527/343 368/530/343
f 367/469/344 371/531/344 369/527/344 370/529/344
f 372/480/345 375/532/345 376/533/345 378/534/345
f 373/470/346 377/535/346 376/533/346 375/536/346
f 374/475/347 378/537/347 376/533/347 377/535/347
f 379/538/348 382/539/348 383/540/348 385/541/348
f 380/488/349 384/542/349 383/540/349 382/543/349
f 381/473/350 385/541/350 383/540/350 384/542/350
f 386/477/351 389/544/351 390/545/351 392/546/351
f 387/474/352 391/547/352 390/545/352 389/544/352
f 388/487/353 392/548/353 390/545/353 391/547/353
f 351/508/354 337/489/354 343/492/354 354/509/354
f 354/514/355 343/496/355 339/481/355 352/484/355
f 338/472/356 344/471/356 350/501/356 342/493/356
f 342/498/357 350/505/357 346/482/357 339/481/357
f 345/479/358 358/478/358 364/519/358 349/502/358
f 349/507/359 364/523/359 360/483/359 346/482/359
f 359/486/360 353/485/360 356/512/360 363/520/360
f 363/520/361 356/512/361 352/484/361 360/483/361
f 379/538/362 351/508/362 357/511/362 382/539/362
f 382/543/363 357/515/363 353/485/363 380/488/363
f 358/478/364 386/477/364 392/546/364 361/517/364
f 361/522/365 392/548/365 388/487/365 359/486/365
f 387/474/366 381/473/366 384/542/366 391/547/366
f 391/547/367 384/542/367 380/488/367 388/487/367
f 365/525/368 379/538/368 385/541/368 368/526/368
f 368/526/369 385/541/369 381/473/369 366/476/369
f 386/477/370 372/480/370 378/537/370 389/544/370
f 389/544/371 378/537/371 374/475/371 387/474/371
f 373/470/372 367/469/372 370/529/372 377/535/372
f 377/535/373 370/529/373 366/476/373 374/475/373
f 337/489/374 365/525/374 371/528/374 340/490/374
f 340/495/375 371/531/375 367/469/375 338/472/375
f 372/480/376 345/479/376 347/504/376 375/532/376
f 375/536/377 347/499/377 344/471/377 373/470/377
f 351/508/378 379/538/378 365/525/378 337/489/378
